<?xml version="1.0" encoding="UTF-8" standalone="no"?>
<svg
   width="50"
   height="50"
   viewBox="0 0 25 25"
   version="1.1"
   id="svg1"
   sodipodi:docname="bash_scripting.svg"
   inkscape:version="1.3 (0e150ed6c4, 2023-07-21)"
   xmlns:inkscape="http://www.inkscape.org/namespaces/inkscape"
   xmlns:sodipodi="http://sodipodi.sourceforge.net/DTD/sodipodi-0.dtd"
   xmlns="http://www.w3.org/2000/svg"
   xmlns:svg="http://www.w3.org/2000/svg">
  <defs
     id="defs1" />
  <sodipodi:namedview
     id="namedview1"
     pagecolor="#505050"
     bordercolor="#eeeeee"
     borderopacity="1"
     inkscape:showpageshadow="0"
     inkscape:pageopacity="0"
     inkscape:pagecheckerboard="0"
     inkscape:deskcolor="#505050"
     inkscape:zoom="2.2732378"
     inkscape:cx="55.86745"
     inkscape:cy="-20.015504"
     inkscape:window-width="948"
     inkscape:window-height="995"
     inkscape:window-x="26"
     inkscape:window-y="23"
     inkscape:window-maximized="0"
     inkscape:current-layer="svg1">
    <sodipodi:guide
       position="0,25"
       orientation="0,50"
       id="guide1"
       inkscape:locked="false" />
    <sodipodi:guide
       position="25,25"
       orientation="50,0"
       id="guide2"
       inkscape:locked="false" />
    <sodipodi:guide
       position="25,0"
       orientation="0,-50"
       id="guide3"
       inkscape:locked="false" />
    <sodipodi:guide
       position="0,0"
       orientation="-50,0"
       id="guide4"
       inkscape:locked="false" />
  </sodipodi:namedview>
  <path
     d="M 21.906747,5.104424 14.026871,0.42718465 a 2.9632394,2.9632394 0 0 0 -3.025625,0 L 3.1198101,5.104424 A 3.1425934,3.1425934 0 0 0 1.5875034,7.8118891 v 9.3544799 a 3.1425934,3.1425934 0 0 0 1.5190501,2.707464 l 7.8798765,4.677239 a 2.9632394,2.9632394 0 0 0 3.025624,0 l 7.881437,-4.677239 a 3.1425934,3.1425934 0 0 0 1.51905,-2.707464 V 7.8118891 A 3.1425934,3.1425934 0 0 0 21.907527,5.104424 Z m -6.103493,14.607211 v 0.670628 c -7.8e-4,0.08422 -0.04445,0.161418 -0.115411,0.206648 l -0.399258,0.228479 c -0.06238,0.03275 -0.115409,0 -0.115409,-0.08811 v -0.660491 a 1.2944677,1.2944677 0 0 1 -0.907688,0.08811 c -0.04835,-0.03275 -0.06706,-0.09514 -0.04367,-0.15596 l 0.142704,-0.608244 c 0.01248,-0.05146 0.03899,-0.09748 0.07953,-0.132566 a 0.14036397,0.14036397 0 0 1 0.039,-0.02729 0.08577798,0.08577798 0 0 1 0.06238,0 1.0995178,1.0995178 0 0 0 0.825808,-0.104494 1.0995178,1.0995178 0 0 0 0.616041,-0.943557 c 0,-0.341553 -0.187152,-0.483477 -0.639436,-0.487375 -0.572373,0 -1.091719,-0.109172 -1.115113,-0.954475 0.01326,-0.730672 0.352469,-1.416897 0.924842,-1.871521 v -0.67998 c -7.79e-4,-0.07798 0.04367,-0.15596 0.11541,-0.208987 l 0.385225,-0.244858 c 0.06238,-0.03275 0.11541,0 0.11541,0.09046 v 0.679985 a 1.2554777,1.2554777 0 0 1 0.754066,-0.09046 c 0.05458,0.03119 0.07643,0.09981 0.04991,0.15596 l -0.134905,0.602785 c -0.0117,0.04679 -0.03509,0.08811 -0.06863,0.120869 -0.01092,0.01171 -0.02339,0.02183 -0.03899,0.03119 -0.01561,0.0094 -0.039,0.0062 -0.0577,0 a 0.99814379,0.99814379 0 0 0 -0.725992,0.118529 0.91236581,0.91236581 0 0 0 -0.55054,0.808652 c 0,0.308021 0.162199,0.401598 0.707279,0.413296 0.729113,0 1.042591,0.329854 1.05117,1.062087 -0.01403,0.766542 -0.364168,1.487858 -0.957594,1.972894 z m 4.127481,-1.13071 c 0.0094,0.0577 -0.01403,0.116971 -0.06082,0.151282 l -1.984592,1.210249 c -0.01871,0.0156 -0.04679,0.01793 -0.06784,0.0055 -0.02106,-0.01248 -0.03119,-0.03899 -0.02573,-0.06238 v -0.514659 c 0.0024,-0.05615 0.039,-0.106053 0.09046,-0.126327 l 1.961977,-1.175159 c 0.01872,-0.01561 0.04679,-0.01793 0.06785,-0.0055 0.02106,0.01247 0.03118,0.03899 0.02573,0.06238 v 0.453836 z M 21.307082,7.0773175 13.850635,11.682816 c -0.930301,0.550539 -1.614185,1.152544 -1.614185,2.272336 v 9.184483 c 0,0.670627 0.275269,1.091719 0.687784,1.232084 a 2.4485715,2.4485715 0 0 1 -0.413295,0.04134 2.4407735,2.4407735 0 0 1 -1.24378,-0.343893 L 3.3872815,19.392697 C 2.6012432,18.922478 2.134923,18.076395 2.1380421,17.167928 V 7.8118891 C 2.1333633,6.9010828 2.6012432,6.0557799 3.3872815,5.5832212 L 11.267159,0.90598171 c 0.764204,-0.45228385 1.712441,-0.45228385 2.476643,0 L 21.62368,5.5832212 c 0.649572,0.3930191 1.091719,1.0527298 1.21025,1.7935396 -0.255775,-0.5559973 -0.844524,-0.7018199 -1.529968,-0.308021 h 0.0024 z"
     fill="#1b1b1f"
     fill-rule="evenodd"
     id="path1"
     style="fill:#ffffff;stroke-width:0.7798" />
</svg>
