<?xml version="1.0" encoding="UTF-8" standalone="no"?>
<!-- Uploaded to: SVG Repo, www.svgrepo.com, Generator: SVG Repo Mixer Tools -->

<svg
   width="800px"
   height="800px"
   viewBox="0 0 16 16"
   fill="#000000"
   version="1.1"
   id="svg2"
   sodipodi:docname="kvm.svg"
   inkscape:version="1.3 (0e150ed6c4, 2023-07-21)"
   xmlns:inkscape="http://www.inkscape.org/namespaces/inkscape"
   xmlns:sodipodi="http://sodipodi.sourceforge.net/DTD/sodipodi-0.dtd"
   xmlns="http://www.w3.org/2000/svg"
   xmlns:svg="http://www.w3.org/2000/svg">
  <defs
     id="defs2" />
  <sodipodi:namedview
     id="namedview2"
     pagecolor="#505050"
     bordercolor="#eeeeee"
     borderopacity="1"
     inkscape:showpageshadow="0"
     inkscape:pageopacity="0"
     inkscape:pagecheckerboard="0"
     inkscape:deskcolor="#505050"
     inkscape:zoom="0.514375"
     inkscape:cx="186.63426"
     inkscape:cy="677.52126"
     inkscape:window-width="1920"
     inkscape:window-height="1011"
     inkscape:window-x="0"
     inkscape:window-y="0"
     inkscape:window-maximized="1"
     inkscape:current-layer="svg2" />
  <g
     id="g3"
     transform="matrix(0.79385632,0,0,0.79385632,1.6491495,1.6491495)"
     style="fill:#ffffff">
    <path
       fill-rule="evenodd"
       clip-rule="evenodd"
       d="m 1.5,2 h 13 L 15,2.5 V 8.003 A 5.006,5.006 0 0 0 14,7.42 V 3 H 2 v 9 h 5 a 5,5 0 0 0 1,3 H 4 V 14 H 7 V 13 H 1.5 L 1,12.5 v -10 z"
       id="path1"
       style="fill:#ffffff" />
    <path
       d="m 12,8 a 4,4 0 1 0 0,8 4,4 0 0 0 0,-8 z m 0,7 A 3.0005,3.0005 0 1 1 12,8.999 3.0005,3.0005 0 0 1 12,15 Z"
       id="path2"
       style="fill:#ffffff" />
  </g>
</svg>
